<svg width="75" height="47" viewBox="0 0 75 47" fill="none" xmlns="http://www.w3.org/2000/svg">
<path d="M20.0443 46C26.2483 46 31.2777 45.306 31.2777 44.4499C31.2777 43.5938 26.2483 42.8998 20.0443 42.8998C13.8402 42.8998 8.81079 43.5938 8.81079 44.4499C8.81079 45.306 13.8402 46 20.0443 46Z" fill="#CDCCCC"/>
<path d="M40.0886 16.4327C40.0886 19.7914 38.8361 23.1666 36.2826 26.0583L20.0442 44.45L3.8058 26.0583C-1.9656 19.5216 -1.09056 10.5174 5.87103 4.81186C9.78494 1.60411 14.9149 0 20.0442 0C25.1736 0 30.3035 1.60411 34.2174 4.81186C38.099 7.99315 40.0886 12.1999 40.0886 16.4327Z" fill="#BE7778"/>
<path d="M40.0886 16.4327C40.0886 19.7915 38.836 23.1665 36.2827 26.0583L20.0443 44.4499V0.00012207C25.1736 0.00012207 30.3035 1.60399 34.2174 4.81173C38.099 7.99322 40.0886 12.2 40.0886 16.4327Z" fill="#A46164"/>
<path d="M20.0443 28.2158C27.9878 28.2158 34.4274 22.9381 34.4274 16.4278C34.4274 9.91744 27.9878 4.63977 20.0443 4.63977C12.1007 4.63977 5.66119 9.91744 5.66119 16.4278C5.66119 22.9381 12.1007 28.2158 20.0443 28.2158Z" fill="#9B6165"/>
<path d="M34.4273 16.4279C34.4273 22.938 27.9879 28.2159 20.0443 28.2159V4.63971C27.9879 4.63971 34.4273 9.91755 34.4273 16.4279Z" fill="#854A51"/>
<path d="M20.0443 26.0716C26.5429 26.0716 31.8111 21.7539 31.8111 16.4278C31.8111 11.1017 26.5429 6.784 20.0443 6.784C13.5456 6.784 8.27747 11.1017 8.27747 16.4278C8.27747 21.7539 13.5456 26.0716 20.0443 26.0716Z" fill="white"/>
<path d="M45.584 35.1328C45.584 35.6094 45.5801 36.0859 45.5723 36.5625C45.5645 37.0391 45.5449 37.5156 45.5137 37.9922C45.4863 38.4648 45.4453 38.9375 45.3906 39.4102C45.3359 39.8828 45.2637 40.3555 45.1738 40.8281L45.0801 41.2969C45.0918 41.3242 45.1113 41.3691 45.1387 41.4316C45.1699 41.4902 45.2012 41.5547 45.2324 41.625C45.2637 41.6914 45.291 41.7539 45.3145 41.8125C45.3379 41.8711 45.3496 41.9102 45.3496 41.9297C45.3496 41.9805 45.3281 42.0195 45.2852 42.0469C45.2461 42.0742 45.1992 42.0938 45.1445 42.1055C45.0898 42.1211 45.0332 42.1309 44.9746 42.1348C44.916 42.1387 44.8691 42.1406 44.834 42.1406C44.791 42.1406 44.75 42.1387 44.7109 42.1348C44.6719 42.1348 44.6348 42.1289 44.5996 42.1172C44.5098 42.0859 44.4492 42.0508 44.418 42.0117C44.3867 41.9727 44.3496 41.9141 44.3066 41.8359C44.1426 41.5234 43.998 41.2012 43.873 40.8691C43.752 40.5332 43.6445 40.1934 43.5508 39.8496C43.457 39.502 43.373 39.1543 43.2988 38.8066C43.2246 38.4551 43.1543 38.1055 43.0879 37.7578C42.9473 39.0469 42.7246 40.3242 42.4199 41.5898C42.4551 41.6602 42.4941 41.7383 42.5371 41.8242C42.584 41.9062 42.6074 41.9883 42.6074 42.0703C42.6074 42.125 42.5898 42.168 42.5547 42.1992C42.5195 42.2305 42.4746 42.252 42.4199 42.2637C42.3691 42.2754 42.3145 42.2812 42.2559 42.2812C42.2012 42.2852 42.1543 42.2852 42.1152 42.2812C42.1035 42.2891 42.0918 42.2949 42.0801 42.2988C42.0684 42.3027 42.0527 42.3047 42.0332 42.3047C41.8965 42.3047 41.7871 42.2637 41.7051 42.1816C41.627 42.0996 41.5645 42 41.5176 41.8828C41.3809 41.5273 41.2598 41.1504 41.1543 40.752C41.0488 40.3535 40.957 39.9492 40.8789 39.5391C40.8008 39.1289 40.7324 38.7207 40.6738 38.3145C40.6191 37.9043 40.5723 37.5078 40.5332 37.125C40.4785 36.6602 40.4258 36.1973 40.375 35.7363C40.3242 35.2754 40.2988 34.8086 40.2988 34.3359C40.2988 34.2539 40.3105 34.1914 40.334 34.1484C40.3574 34.1016 40.416 34.0781 40.5098 34.0781C40.6543 34.0781 40.7656 34.1016 40.8438 34.1484C40.9258 34.1914 40.9863 34.252 41.0254 34.3301C41.0684 34.4043 41.0957 34.4922 41.1074 34.5938C41.123 34.6953 41.1348 34.8047 41.1426 34.9219C41.2207 35.7891 41.3164 36.6523 41.4297 37.5117C41.543 38.3711 41.7051 39.2227 41.916 40.0664C42.0215 39.5234 42.1016 38.9805 42.1562 38.4375C42.2148 37.8906 42.2715 37.3438 42.3262 36.7969C42.3379 36.6523 42.3457 36.5059 42.3496 36.3574C42.3535 36.209 42.3594 36.0605 42.3672 35.9121C42.3789 35.7598 42.3926 35.6094 42.4082 35.4609C42.4277 35.3125 42.459 35.168 42.502 35.0273C42.5371 34.9023 42.5938 34.8066 42.6719 34.7402C42.75 34.6738 42.8574 34.6406 42.9941 34.6406C43.127 34.6406 43.2305 34.6699 43.3047 34.7285C43.3789 34.7871 43.4355 34.8613 43.4746 34.9512C43.5176 35.0371 43.5469 35.1348 43.5625 35.2441C43.5781 35.3535 43.5918 35.457 43.6035 35.5547C43.6973 36.2617 43.8184 36.9609 43.9668 37.6523C44.1191 38.3438 44.2988 39.0312 44.5059 39.7148C44.584 39.1094 44.6328 38.5059 44.6523 37.9043C44.6719 37.3027 44.6816 36.6953 44.6816 36.082C44.6816 35.7344 44.6777 35.3848 44.6699 35.0332C44.666 34.6816 44.6426 34.3281 44.5996 33.9727C44.5996 33.9297 44.5957 33.8906 44.5879 33.8555C44.5801 33.8203 44.5762 33.7812 44.5762 33.7383C44.5762 33.6562 44.6016 33.5977 44.6523 33.5625C44.7031 33.5234 44.7676 33.5039 44.8457 33.5039C44.8965 33.5039 44.9512 33.5098 45.0098 33.5215C45.0723 33.5293 45.1328 33.543 45.1914 33.5625C45.2539 33.5781 45.3105 33.5996 45.3613 33.627C45.416 33.6543 45.459 33.6875 45.4902 33.7266C45.5059 33.7461 45.5176 33.7891 45.5254 33.8555C45.5371 33.9219 45.5469 34.002 45.5547 34.0957C45.5625 34.1895 45.5684 34.2891 45.5723 34.3945C45.5762 34.5 45.5781 34.6016 45.5781 34.6992C45.582 34.7969 45.584 34.8848 45.584 34.9629C45.584 35.041 45.584 35.0977 45.584 35.1328ZM48.6602 41.9238C48.6602 42.002 48.6406 42.0547 48.6016 42.082C48.5625 42.1133 48.5078 42.1289 48.4375 42.1289C48.2539 42.1289 48.1211 42.0801 48.0391 41.9824C47.9609 41.8848 47.9023 41.7559 47.8633 41.5957C47.8516 41.541 47.8398 41.4863 47.8281 41.4316C47.8164 41.373 47.8066 41.3164 47.7988 41.2617C47.791 41.2109 47.7832 41.1758 47.7754 41.1562C47.7676 41.1367 47.7598 41.0996 47.752 41.0449C47.7051 41.1582 47.6465 41.2773 47.5762 41.4023C47.5098 41.5234 47.4316 41.6367 47.3418 41.7422C47.252 41.8438 47.1504 41.9277 47.0371 41.9941C46.9277 42.0605 46.8066 42.0938 46.6738 42.0938C46.5332 42.0938 46.416 42.0605 46.3223 41.9941C46.2285 41.9238 46.1543 41.8379 46.0996 41.7363C46.0488 41.6309 46.0117 41.5156 45.9883 41.3906C45.9688 41.2656 45.959 41.1465 45.959 41.0332C45.959 40.7676 45.9844 40.4805 46.0352 40.1719C46.0898 39.8594 46.1641 39.5488 46.2578 39.2402C46.3516 38.9277 46.4609 38.6289 46.5859 38.3438C46.7109 38.0547 46.8477 37.8027 46.9961 37.5879V37.5938L47.0312 37.541C47.0742 37.4824 47.123 37.4199 47.1777 37.3535C47.2363 37.2832 47.3047 37.248 47.3828 37.248C47.457 37.248 47.5215 37.2812 47.5762 37.3477C47.6309 37.4102 47.6699 37.4766 47.6934 37.5469C47.7949 37.5664 47.877 37.5918 47.9395 37.623C48.002 37.6504 48.0508 37.6855 48.0859 37.7285C48.1211 37.7715 48.1445 37.8223 48.1562 37.8809C48.168 37.9355 48.1738 37.9961 48.1738 38.0625C48.1738 38.0898 48.1738 38.1191 48.1738 38.1504C48.1738 38.1816 48.1719 38.2129 48.168 38.2441C48.1641 38.2754 48.1621 38.3125 48.1621 38.3555C48.1621 38.3984 48.1621 38.4375 48.1621 38.4727C48.1621 38.5117 48.168 38.5625 48.1797 38.625C48.1953 38.6875 48.2109 38.752 48.2266 38.8184L48.2676 39.0352C48.2871 39.1484 48.3027 39.2773 48.3145 39.4219C48.3301 39.5664 48.3477 39.7109 48.3672 39.8555C48.3828 40.0039 48.3984 40.1484 48.4141 40.2891C48.4297 40.4258 48.4453 40.5527 48.4609 40.6699L48.6016 41.5371L48.6191 41.6367C48.627 41.6875 48.6348 41.7344 48.6426 41.7773C48.6543 41.8203 48.6602 41.8691 48.6602 41.9238ZM47.3184 38.5547C47.3184 38.5469 47.3164 38.5352 47.3125 38.5195C47.3086 38.5 47.3047 38.4805 47.3008 38.4609C47.2109 38.6523 47.1309 38.8613 47.0605 39.0879C46.9941 39.3105 46.9375 39.5391 46.8906 39.7734C46.8477 40.0039 46.8145 40.2363 46.791 40.4707C46.7715 40.7012 46.7617 40.9199 46.7617 41.127C46.7617 41.1465 46.7617 41.1641 46.7617 41.1797C46.7617 41.1953 46.7637 41.2109 46.7676 41.2266V41.2324C46.8613 41.0879 46.9414 40.8984 47.0078 40.6641C47.0781 40.4258 47.1367 40.1777 47.1836 39.9199C47.2305 39.6582 47.2637 39.4062 47.2832 39.1641C47.3066 38.918 47.3184 38.7148 47.3184 38.5547ZM51.3555 40.6875C51.3555 40.7695 51.3418 40.8535 51.3145 40.9395C51.2871 41.0254 51.2559 41.1074 51.2207 41.1855C51.1738 41.2988 51.1172 41.4102 51.0508 41.5195C50.9844 41.625 50.9082 41.7207 50.8223 41.8066C50.7363 41.8887 50.6387 41.9551 50.5293 42.0059C50.4199 42.0566 50.2969 42.082 50.1602 42.082C49.918 42.082 49.7168 42.0215 49.5566 41.9004C49.3965 41.7793 49.2695 41.627 49.1758 41.4434C49.082 41.2598 49.0156 41.0586 48.9766 40.8398C48.9414 40.6211 48.9238 40.4141 48.9238 40.2188C48.9238 40.0742 48.9297 39.9043 48.9414 39.709C48.9531 39.5098 48.9746 39.3047 49.0059 39.0938C49.041 38.8828 49.0898 38.6738 49.1523 38.4668C49.2188 38.2598 49.3027 38.0762 49.4043 37.916C49.5059 37.752 49.6289 37.6191 49.7734 37.5176C49.9219 37.416 50.0977 37.3652 50.3008 37.3652C50.3438 37.3652 50.4062 37.373 50.4883 37.3887C50.5703 37.4043 50.6504 37.4277 50.7285 37.459C50.8105 37.4863 50.8809 37.5254 50.9395 37.5762C51.002 37.623 51.0332 37.7402 51.0332 37.7402C51.0332 37.7988 51.0059 37.8438 50.9512 37.875C50.9004 37.9062 50.8379 37.9297 50.7637 37.9453C50.6934 37.957 50.6191 37.9648 50.541 37.9688C50.4668 37.9688 50.4062 37.9688 50.3594 37.9688H50.2539C50.1445 38.0664 50.0547 38.2109 49.9844 38.4023C49.9141 38.5898 49.8594 38.791 49.8203 39.0059C49.7812 39.2207 49.7539 39.4336 49.7383 39.6445C49.7227 39.8516 49.7148 40.0215 49.7148 40.1543C49.7148 40.3418 49.7285 40.5273 49.7559 40.7109C49.7871 40.8906 49.8477 41.0605 49.9375 41.2207C49.957 41.2559 49.9844 41.2969 50.0195 41.3438C50.0586 41.3867 50.1016 41.4082 50.1484 41.4082C50.1836 41.4082 50.2188 41.3789 50.2539 41.3203C50.293 41.2617 50.3281 41.1934 50.3594 41.1152C50.3906 41.0371 50.416 40.9609 50.4355 40.8867C50.4551 40.8125 50.4688 40.7578 50.4766 40.7227C50.4805 40.707 50.4824 40.6895 50.4824 40.6699C50.4824 40.6504 50.4824 40.6309 50.4824 40.6113C50.4824 40.5762 50.4824 40.543 50.4824 40.5117C50.4863 40.4766 50.4922 40.4492 50.5 40.4297C50.5273 40.3633 50.5625 40.3184 50.6055 40.2949C50.6523 40.2715 50.709 40.2598 50.7754 40.2598C50.834 40.2598 50.8965 40.2676 50.9629 40.2832C51.0293 40.2988 51.0918 40.3242 51.1504 40.3594C51.209 40.3945 51.2578 40.4395 51.2969 40.4941C51.3359 40.5488 51.3555 40.6133 51.3555 40.6875ZM54.4082 41.6836C54.4082 41.7617 54.3828 41.8184 54.332 41.8535C54.2812 41.8887 54.2188 41.9062 54.1445 41.9062C54.0977 41.9062 54.0488 41.9023 53.998 41.8945C53.9473 41.8828 53.8984 41.8711 53.8516 41.8594C53.7695 41.8359 53.7051 41.8066 53.6582 41.7715C53.6152 41.7363 53.582 41.6973 53.5586 41.6543C53.5352 41.6074 53.5195 41.5566 53.5117 41.502C53.5078 41.4473 53.5039 41.3867 53.5 41.3203C53.5 41.3008 53.498 41.2832 53.4941 41.2676C53.4941 41.252 53.4941 41.2363 53.4941 41.2207C53.4824 40.998 53.4707 40.7695 53.459 40.5352C53.4512 40.3008 53.4473 40.0723 53.4473 39.8496C53.4473 39.7363 53.4473 39.623 53.4473 39.5098C53.4512 39.3965 53.4551 39.2832 53.459 39.1699C53.4629 39.0566 53.4648 38.9453 53.4648 38.8359C53.4688 38.7227 53.4707 38.6094 53.4707 38.4961C53.4707 38.4727 53.4688 38.4512 53.4648 38.4316C53.4648 38.4082 53.4629 38.3848 53.459 38.3613C53.3574 38.5098 53.2676 38.6758 53.1895 38.8594C53.1152 39.0391 53.0488 39.2266 52.9902 39.4219C52.9316 39.6133 52.8809 39.8066 52.8379 40.002C52.7988 40.1934 52.7656 40.377 52.7383 40.5527L52.7207 40.6758C52.7012 40.8125 52.6816 40.9531 52.6621 41.0977C52.6426 41.2383 52.6328 41.3789 52.6328 41.5195C52.6328 41.5781 52.6426 41.6426 52.6621 41.7129C52.6699 41.7441 52.6758 41.7754 52.6797 41.8066C52.6875 41.834 52.6914 41.8691 52.6914 41.9121C52.6914 42.0059 52.668 42.0684 52.6211 42.0996C52.5742 42.1348 52.5117 42.1523 52.4336 42.1523C52.3867 42.1523 52.334 42.1484 52.2754 42.1406C52.2207 42.1328 52.166 42.1191 52.1113 42.0996C52.0605 42.084 52.0117 42.0625 51.9648 42.0352C51.918 42.0078 51.8809 41.9727 51.8535 41.9297C51.8301 41.8789 51.8066 41.7441 51.7832 41.5254C51.7637 41.3066 51.7441 41.0352 51.7246 40.7109C51.709 40.3867 51.6934 40.0234 51.6777 39.6211C51.6621 39.2148 51.6465 38.7988 51.6309 38.373C51.6191 37.9473 51.6074 37.5254 51.5957 37.1074C51.5879 36.6895 51.5801 36.3047 51.5723 35.9531C51.5684 35.6016 51.5645 35.2969 51.5605 35.0391C51.5566 34.7773 51.5547 34.5938 51.5547 34.4883C51.5547 34.4102 51.5645 34.3398 51.584 34.2773C51.6074 34.2109 51.6699 34.1777 51.7715 34.1777C51.877 34.1777 51.9766 34.2031 52.0703 34.2539C52.1641 34.3008 52.2324 34.375 52.2754 34.4766C52.2832 34.4922 52.291 34.5566 52.2988 34.6699C52.3066 34.7793 52.3145 34.9219 52.3223 35.0977C52.3301 35.2695 52.3379 35.4688 52.3457 35.6953C52.3535 35.918 52.3613 36.1504 52.3691 36.3926C52.377 36.6309 52.3848 36.8711 52.3926 37.1133C52.4004 37.3555 52.4082 37.582 52.416 37.793L52.4453 38.6602C52.4922 38.5391 52.5508 38.4121 52.6211 38.2793C52.6914 38.1465 52.7715 38.0254 52.8613 37.916C52.9551 37.8066 53.0586 37.7168 53.1719 37.6465C53.2891 37.5762 53.418 37.541 53.5586 37.541C53.7305 37.541 53.8652 37.5859 53.9629 37.6758C54.0605 37.7656 54.1328 37.877 54.1797 38.0098C54.2305 38.1426 54.2617 38.2852 54.2734 38.4375C54.2852 38.5898 54.291 38.7285 54.291 38.8535C54.291 38.9316 54.2891 39.0078 54.2852 39.082C54.2852 39.1562 54.2832 39.2305 54.2793 39.3047C54.2754 39.3828 54.2715 39.4609 54.2676 39.5391C54.2676 39.6133 54.2676 39.6895 54.2676 39.7676C54.2676 40.0371 54.2734 40.3145 54.2852 40.5996C54.2969 40.8809 54.3262 41.1582 54.373 41.4316L54.3848 41.5137C54.3926 41.5371 54.3984 41.5645 54.4023 41.5957C54.4062 41.627 54.4082 41.6562 54.4082 41.6836ZM56.207 41.8535C56.207 41.8965 56.1973 41.9336 56.1777 41.9648C56.1582 41.9922 56.1328 42.0137 56.1016 42.0293C56.0742 42.0449 56.043 42.0547 56.0078 42.0586C55.9766 42.0664 55.9453 42.0703 55.9141 42.0703C55.8711 42.0703 55.8203 42.0645 55.7617 42.0527C55.707 42.0449 55.6523 42.0312 55.5977 42.0117C55.543 41.9922 55.4922 41.9688 55.4453 41.9414C55.4023 41.9102 55.3691 41.873 55.3457 41.8301C55.3223 41.791 55.3008 41.7188 55.2812 41.6133C55.2656 41.5039 55.252 41.3789 55.2402 41.2383C55.2285 41.0938 55.2188 40.9414 55.2109 40.7812C55.2031 40.6172 55.1953 40.4609 55.1875 40.3125C55.1836 40.1641 55.1797 40.0312 55.1758 39.9141C55.1758 39.793 55.1758 39.7031 55.1758 39.6445C55.1758 39.3711 55.1797 39.1074 55.1875 38.8535C55.1992 38.5957 55.2109 38.332 55.2227 38.0625C55.2031 38.0625 55.1836 38.0645 55.1641 38.0684C55.1445 38.0723 55.125 38.0742 55.1055 38.0742C55.0547 38.082 55.002 38.0879 54.9473 38.0918C54.8965 38.0957 54.8438 38.0977 54.7891 38.0977C54.7227 38.0977 54.6641 38.0859 54.6133 38.0625C54.5625 38.0391 54.5371 37.9863 54.5371 37.9043C54.5371 37.8066 54.5586 37.7285 54.6016 37.6699C54.6445 37.6113 54.6992 37.5664 54.7656 37.5352C54.832 37.5 54.9043 37.4766 54.9824 37.4648C55.0605 37.4492 55.1367 37.4375 55.2109 37.4297C55.2227 37.4297 55.2305 37.4297 55.2344 37.4297C55.2383 37.4258 55.2461 37.4238 55.2578 37.4238C55.2617 37.377 55.2656 37.3203 55.2695 37.2539C55.2734 37.1836 55.2773 37.1074 55.2812 37.0254C55.2852 36.8965 55.291 36.7598 55.2988 36.6152C55.3066 36.4668 55.3145 36.3262 55.3223 36.1934C55.3301 36.0566 55.3398 35.9375 55.3516 35.8359C55.3633 35.7305 55.375 35.6562 55.3867 35.6133C55.4062 35.5625 55.4277 35.5215 55.4512 35.4902C55.4785 35.459 55.5273 35.4434 55.5977 35.4434C55.7539 35.4434 55.875 35.4941 55.9609 35.5957C56.0469 35.6973 56.0898 35.8223 56.0898 35.9707C56.0898 36.1426 56.084 36.3145 56.0723 36.4863C56.0645 36.6582 56.0566 36.832 56.0488 37.0078L56.0312 37.3066C56.1289 37.2949 56.2266 37.2773 56.3242 37.2539C56.418 37.2344 56.5117 37.2168 56.6055 37.2012C56.7031 37.1855 56.7969 37.1777 56.8867 37.1777C56.9648 37.1777 57.0254 37.1992 57.0684 37.2422C57.1113 37.2812 57.1328 37.3398 57.1328 37.418C57.1328 37.5039 57.1172 37.5879 57.0859 37.6699C57.0547 37.752 57 37.8145 56.9219 37.8574H56.9277C56.9121 37.8652 56.8652 37.877 56.7871 37.8926C56.709 37.9043 56.6191 37.916 56.5176 37.9277C56.4199 37.9395 56.3223 37.9512 56.2246 37.9629C56.1309 37.9746 56.0605 37.9824 56.0137 37.9863H56.0078C56 38.2051 55.9941 38.4219 55.9902 38.6367C55.9863 38.8477 55.9844 39.0625 55.9844 39.2812C55.9844 39.582 55.9922 39.9023 56.0078 40.2422C56.0273 40.5781 56.0586 40.8984 56.1016 41.2031L56.1484 41.4668C56.1641 41.5332 56.1777 41.5996 56.1895 41.666C56.2012 41.7285 56.207 41.791 56.207 41.8535ZM62.4121 35.1328C62.4121 35.6094 62.4082 36.0859 62.4004 36.5625C62.3926 37.0391 62.373 37.5156 62.3418 37.9922C62.3145 38.4648 62.2734 38.9375 62.2188 39.4102C62.1641 39.8828 62.0918 40.3555 62.002 40.8281L61.9082 41.2969C61.9199 41.3242 61.9395 41.3691 61.9668 41.4316C61.998 41.4902 62.0293 41.5547 62.0605 41.625C62.0918 41.6914 62.1191 41.7539 62.1426 41.8125C62.166 41.8711 62.1777 41.9102 62.1777 41.9297C62.1777 41.9805 62.1562 42.0195 62.1133 42.0469C62.0742 42.0742 62.0273 42.0938 61.9727 42.1055C61.918 42.1211 61.8613 42.1309 61.8027 42.1348C61.7441 42.1387 61.6973 42.1406 61.6621 42.1406C61.6191 42.1406 61.5781 42.1387 61.5391 42.1348C61.5 42.1348 61.4629 42.1289 61.4277 42.1172C61.3379 42.0859 61.2773 42.0508 61.2461 42.0117C61.2148 41.9727 61.1777 41.9141 61.1348 41.8359C60.9707 41.5234 60.8262 41.2012 60.7012 40.8691C60.5801 40.5332 60.4727 40.1934 60.3789 39.8496C60.2852 39.502 60.2012 39.1543 60.127 38.8066C60.0527 38.4551 59.9824 38.1055 59.916 37.7578C59.7754 39.0469 59.5527 40.3242 59.248 41.5898C59.2832 41.6602 59.3223 41.7383 59.3652 41.8242C59.4121 41.9062 59.4355 41.9883 59.4355 42.0703C59.4355 42.125 59.418 42.168 59.3828 42.1992C59.3477 42.2305 59.3027 42.252 59.248 42.2637C59.1973 42.2754 59.1426 42.2812 59.084 42.2812C59.0293 42.2852 58.9824 42.2852 58.9434 42.2812C58.9316 42.2891 58.9199 42.2949 58.9082 42.2988C58.8965 42.3027 58.8809 42.3047 58.8613 42.3047C58.7246 42.3047 58.6152 42.2637 58.5332 42.1816C58.4551 42.0996 58.3926 42 58.3457 41.8828C58.209 41.5273 58.0879 41.1504 57.9824 40.752C57.877 40.3535 57.7852 39.9492 57.707 39.5391C57.6289 39.1289 57.5605 38.7207 57.502 38.3145C57.4473 37.9043 57.4004 37.5078 57.3613 37.125C57.3066 36.6602 57.2539 36.1973 57.2031 35.7363C57.1523 35.2754 57.127 34.8086 57.127 34.3359C57.127 34.2539 57.1387 34.1914 57.1621 34.1484C57.1855 34.1016 57.2441 34.0781 57.3379 34.0781C57.4824 34.0781 57.5938 34.1016 57.6719 34.1484C57.7539 34.1914 57.8145 34.252 57.8535 34.3301C57.8965 34.4043 57.9238 34.4922 57.9355 34.5938C57.9512 34.6953 57.9629 34.8047 57.9707 34.9219C58.0488 35.7891 58.1445 36.6523 58.2578 37.5117C58.3711 38.3711 58.5332 39.2227 58.7441 40.0664C58.8496 39.5234 58.9297 38.9805 58.9844 38.4375C59.043 37.8906 59.0996 37.3438 59.1543 36.7969C59.166 36.6523 59.1738 36.5059 59.1777 36.3574C59.1816 36.209 59.1875 36.0605 59.1953 35.9121C59.207 35.7598 59.2207 35.6094 59.2363 35.4609C59.2559 35.3125 59.2871 35.168 59.3301 35.0273C59.3652 34.9023 59.4219 34.8066 59.5 34.7402C59.5781 34.6738 59.6855 34.6406 59.8223 34.6406C59.9551 34.6406 60.0586 34.6699 60.1328 34.7285C60.207 34.7871 60.2637 34.8613 60.3027 34.9512C60.3457 35.0371 60.375 35.1348 60.3906 35.2441C60.4062 35.3535 60.4199 35.457 60.4316 35.5547C60.5254 36.2617 60.6465 36.9609 60.7949 37.6523C60.9473 38.3438 61.127 39.0312 61.334 39.7148C61.4121 39.1094 61.4609 38.5059 61.4805 37.9043C61.5 37.3027 61.5098 36.6953 61.5098 36.082C61.5098 35.7344 61.5059 35.3848 61.498 35.0332C61.4941 34.6816 61.4707 34.3281 61.4277 33.9727C61.4277 33.9297 61.4238 33.8906 61.416 33.8555C61.4082 33.8203 61.4043 33.7812 61.4043 33.7383C61.4043 33.6562 61.4297 33.5977 61.4805 33.5625C61.5312 33.5234 61.5957 33.5039 61.6738 33.5039C61.7246 33.5039 61.7793 33.5098 61.8379 33.5215C61.9004 33.5293 61.9609 33.543 62.0195 33.5625C62.082 33.5781 62.1387 33.5996 62.1895 33.627C62.2441 33.6543 62.2871 33.6875 62.3184 33.7266C62.334 33.7461 62.3457 33.7891 62.3535 33.8555C62.3652 33.9219 62.375 34.002 62.3828 34.0957C62.3906 34.1895 62.3965 34.2891 62.4004 34.3945C62.4043 34.5 62.4062 34.6016 62.4062 34.6992C62.4102 34.7969 62.4121 34.8848 62.4121 34.9629C62.4121 35.041 62.4121 35.0977 62.4121 35.1328ZM63.7891 37.0723C63.7891 37.1387 63.7734 37.1875 63.7422 37.2188C63.7148 37.2461 63.6621 37.2598 63.584 37.2598C63.5488 37.2598 63.4941 37.2559 63.4199 37.248C63.3457 37.2363 63.2695 37.2207 63.1914 37.2012C63.1172 37.1816 63.0508 37.1543 62.9922 37.1191C62.9375 37.084 62.9102 37.041 62.9102 36.9902C62.9102 36.9746 62.916 36.9316 62.9277 36.8613C62.9395 36.7871 62.9531 36.709 62.9688 36.627C62.9883 36.5449 63.0039 36.4707 63.0156 36.4043C63.0312 36.3379 63.043 36.3008 63.0508 36.293V36.2988C63.0703 36.2676 63.0938 36.248 63.1211 36.2402C63.1484 36.2324 63.1758 36.2285 63.2031 36.2285C63.2383 36.2285 63.2832 36.2344 63.3379 36.2461C63.3965 36.2539 63.4531 36.2676 63.5078 36.2871C63.5664 36.3027 63.6191 36.3242 63.666 36.3516C63.7129 36.3789 63.7422 36.4082 63.7539 36.4395C63.7656 36.4707 63.7715 36.5137 63.7715 36.5684C63.7754 36.6191 63.7754 36.666 63.7715 36.709C63.7715 36.7246 63.7695 36.7441 63.7656 36.7676C63.7656 36.7871 63.7656 36.8027 63.7656 36.8145C63.7656 36.834 63.7656 36.8535 63.7656 36.873C63.7695 36.8926 63.7734 36.9121 63.7773 36.9316C63.7812 36.9512 63.7832 36.9727 63.7832 36.9961C63.7871 37.0195 63.7891 37.0449 63.7891 37.0723ZM64.0059 41.7422C64.0059 41.832 63.9844 41.8965 63.9414 41.9355C63.9023 41.9707 63.8379 41.9883 63.748 41.9883C63.7012 41.9883 63.6484 41.9824 63.5898 41.9707C63.5352 41.959 63.4805 41.9434 63.4258 41.9238C63.3711 41.9004 63.3203 41.873 63.2734 41.8418C63.2266 41.8105 63.1914 41.7754 63.168 41.7363C63.1523 41.7129 63.1387 41.6406 63.127 41.5195C63.1152 41.3984 63.1055 41.248 63.0977 41.0684C63.0938 40.8887 63.0879 40.6875 63.0801 40.4648C63.0762 40.2422 63.0723 40.0176 63.0684 39.791C63.0684 39.5645 63.0684 39.3438 63.0684 39.1289C63.0684 38.9141 63.0684 38.7266 63.0684 38.5664V38.1152C63.0684 38.0762 63.0684 38.0371 63.0684 37.998C63.0723 37.959 63.0801 37.9258 63.0918 37.8984C63.1074 37.8672 63.1289 37.8418 63.1562 37.8223C63.1875 37.8027 63.2305 37.793 63.2852 37.793C63.457 37.793 63.582 37.8418 63.6602 37.9395C63.7422 38.0332 63.793 38.1602 63.8125 38.3203C63.832 38.5586 63.8457 38.7969 63.8535 39.0352C63.8652 39.2695 63.875 39.5078 63.8828 39.75C63.8906 39.9688 63.8965 40.1855 63.9004 40.4004C63.9082 40.6113 63.9219 40.8223 63.9414 41.0332C63.9453 41.0762 63.9492 41.1172 63.9531 41.1562C63.957 41.1953 63.9629 41.2344 63.9707 41.2734C63.9785 41.3516 63.9863 41.4297 63.9941 41.5078C64.002 41.582 64.0059 41.6602 64.0059 41.7422ZM65.2305 36.4453C65.2305 36.4922 65.2285 36.5391 65.2246 36.5859C65.2246 36.6289 65.2227 36.6738 65.2188 36.7207C65.2148 36.7676 65.2129 36.8145 65.2129 36.8613C65.2129 36.9082 65.2129 36.9551 65.2129 37.002C65.2129 37.0723 65.2012 37.1367 65.1777 37.1953C65.1543 37.2539 65.0977 37.2832 65.0078 37.2832C64.9766 37.2832 64.9238 37.2773 64.8496 37.2656C64.7793 37.2539 64.7051 37.2363 64.627 37.2129C64.5527 37.1895 64.4863 37.1621 64.4277 37.1309C64.3691 37.0957 64.3398 37.0566 64.3398 37.0137C64.3398 36.998 64.3477 36.9492 64.3633 36.8672C64.3828 36.7852 64.4043 36.6973 64.4277 36.6035C64.4512 36.5059 64.4727 36.418 64.4922 36.3398C64.5117 36.2578 64.5254 36.2129 64.5332 36.2051V36.2109C64.5527 36.168 64.5723 36.1426 64.5918 36.1348C64.6113 36.127 64.6426 36.123 64.6855 36.123C64.7324 36.123 64.7871 36.1289 64.8496 36.1406C64.9121 36.1484 64.9707 36.166 65.0254 36.1934C65.084 36.2168 65.1328 36.25 65.1719 36.293C65.2109 36.332 65.2305 36.3828 65.2305 36.4453ZM66.2734 40.1895C66.2734 40.2129 66.2539 40.2676 66.2148 40.3535C66.1797 40.4355 66.1348 40.5312 66.0801 40.6406C66.0254 40.75 65.9668 40.8652 65.9043 40.9863C65.8418 41.1035 65.7871 41.209 65.7402 41.3027C65.7168 41.3496 65.6973 41.3926 65.6816 41.4316C65.666 41.4668 65.6523 41.4941 65.6406 41.5137L65.6934 41.8301C65.7637 42.2793 65.8301 42.7305 65.8926 43.1836C65.9551 43.6367 65.9863 44.0938 65.9863 44.5547C65.9863 44.6914 65.9824 44.832 65.9746 44.9766C65.9707 45.125 65.9531 45.2695 65.9219 45.4102C65.8945 45.5508 65.8477 45.6836 65.7812 45.8086C65.7188 45.9375 65.6289 46.0488 65.5117 46.1426C65.4219 46.2129 65.3242 46.2676 65.2188 46.3066C65.1133 46.3496 65.0039 46.3711 64.8906 46.3711C64.6758 46.3711 64.498 46.3242 64.3574 46.2305C64.2207 46.1406 64.1113 46.0234 64.0293 45.8789C63.9473 45.7344 63.8906 45.5723 63.8594 45.3926C63.8242 45.2168 63.8066 45.041 63.8066 44.8652C63.8066 44.5566 63.8379 44.25 63.9004 43.9453C63.959 43.6406 64.0371 43.3398 64.1348 43.043C64.2324 42.7461 64.3418 42.4551 64.4629 42.1699C64.5879 41.8848 64.7129 41.6035 64.8379 41.3262C64.7793 40.9746 64.7324 40.627 64.6973 40.2832C64.6621 39.9355 64.6328 39.5781 64.6094 39.2109L64.5918 38.9297C64.584 38.7852 64.5742 38.6406 64.5625 38.4961C64.5547 38.3516 64.5508 38.2051 64.5508 38.0566C64.5508 37.9785 64.5625 37.9121 64.5859 37.8574C64.6133 37.7988 64.6719 37.7695 64.7617 37.7695C64.8047 37.7695 64.8457 37.7734 64.8848 37.7812C64.9238 37.7891 64.9648 37.8027 65.0078 37.8223V37.8164C65.082 37.8516 65.1387 37.8926 65.1777 37.9395C65.2168 37.9824 65.2461 38.0293 65.2656 38.0801C65.2852 38.1309 65.2969 38.1855 65.3008 38.2441C65.3086 38.3027 65.3125 38.3633 65.3125 38.4258V38.5195C65.3242 38.793 65.3379 39.0488 65.3535 39.2871C65.373 39.5215 65.3984 39.7754 65.4297 40.0488C65.4648 39.9785 65.5059 39.9141 65.5527 39.8555C65.6035 39.793 65.6719 39.7617 65.7578 39.7617C65.8008 39.7617 65.8516 39.7754 65.9102 39.8027C65.9727 39.8301 66.0293 39.8652 66.0801 39.9082C66.1348 39.9512 66.1797 39.998 66.2148 40.0488C66.2539 40.0996 66.2734 40.1465 66.2734 40.1895ZM65.2012 44.4141C65.2012 44.1562 65.1875 43.8926 65.1602 43.623C65.1367 43.3535 65.1055 43.0879 65.0664 42.8262C64.9492 43.1387 64.8477 43.4668 64.7617 43.8105C64.6758 44.1582 64.6328 44.4961 64.6328 44.8242C64.6328 44.8906 64.6348 44.9629 64.6387 45.041C64.6426 45.123 64.6523 45.2051 64.668 45.2871C64.6836 45.3691 64.7051 45.4473 64.7324 45.5215C64.7598 45.5957 64.7969 45.6562 64.8438 45.7031C64.8477 45.707 64.8594 45.709 64.8789 45.709C64.9297 45.709 64.9727 45.6816 65.0078 45.627C65.043 45.5762 65.0723 45.5098 65.0957 45.4277C65.1191 45.3457 65.1367 45.2539 65.1484 45.1523C65.1641 45.0508 65.1758 44.9512 65.1836 44.8535C65.1914 44.7598 65.1953 44.6719 65.1953 44.5898C65.1992 44.5117 65.2012 44.4531 65.2012 44.4141ZM68.916 41.3438C68.916 41.4141 68.8867 41.4785 68.8281 41.5371C68.7695 41.5957 68.6934 41.6484 68.5996 41.6953C68.5098 41.7383 68.4062 41.7773 68.2891 41.8125C68.1758 41.8477 68.0645 41.877 67.9551 41.9004C67.8457 41.9199 67.7441 41.9355 67.6504 41.9473C67.5605 41.959 67.4902 41.9648 67.4395 41.9648C67.3418 41.9648 67.2383 41.957 67.1289 41.9414C67.0195 41.9258 66.9121 41.9023 66.8066 41.8711C66.7012 41.8359 66.6016 41.793 66.5078 41.7422C66.4141 41.6875 66.334 41.623 66.2676 41.5488V41.5547C66.2363 41.5234 66.207 41.4863 66.1797 41.4434C66.1484 41.4004 66.1328 41.3516 66.1328 41.2969C66.1328 41.2617 66.1465 41.2305 66.1738 41.2031C66.2012 41.1758 66.2324 41.1562 66.2676 41.1445C66.3066 41.0508 66.3477 40.957 66.3906 40.8633C66.4336 40.7695 66.4766 40.6777 66.5195 40.5879L66.6074 40.3828C66.8145 39.9766 67.0059 39.5742 67.1816 39.1758C67.3613 38.7773 67.5391 38.3652 67.7148 37.9395L67.4805 37.9512L67.1934 37.9688L67 37.9922C66.9453 38 66.8926 38.0059 66.8418 38.0098C66.7949 38.0137 66.7461 38.0156 66.6953 38.0156C66.5469 38.0156 66.4727 37.9434 66.4727 37.7988C66.4727 37.7324 66.4805 37.6738 66.4961 37.623C66.5117 37.5684 66.541 37.5195 66.584 37.4766C66.6035 37.4531 66.6543 37.4316 66.7363 37.4121C66.8223 37.3887 66.9219 37.3691 67.0352 37.3535C67.1484 37.334 67.2695 37.3164 67.3984 37.3008C67.5312 37.2852 67.6582 37.2715 67.7793 37.2598C67.9004 37.248 68.0078 37.2402 68.1016 37.2363C68.1992 37.2285 68.2676 37.2246 68.3066 37.2246C68.377 37.2246 68.4414 37.2344 68.5 37.2539C68.5625 37.2734 68.5938 37.332 68.5938 37.4297C68.5938 37.4844 68.5801 37.5449 68.5527 37.6113C68.5254 37.6738 68.4961 37.7305 68.4648 37.7812C68.4727 37.8008 68.4766 37.8301 68.4766 37.8691C68.4766 37.9121 68.4609 37.9844 68.4297 38.0859C68.3984 38.1875 68.3555 38.3105 68.3008 38.4551C68.25 38.5996 68.1895 38.7598 68.1191 38.9355C68.0488 39.1113 67.9746 39.291 67.8965 39.4746C67.8223 39.6582 67.7461 39.8418 67.668 40.0254C67.5898 40.209 67.5156 40.3809 67.4453 40.541L67.1172 41.3027C67.1836 41.3184 67.2598 41.3262 67.3457 41.3262C67.5215 41.3262 67.6875 41.293 67.8438 41.2266C68.0039 41.1602 68.1406 41.0938 68.2539 41.0273C68.3203 40.9922 68.3789 40.9629 68.4297 40.9395C68.4805 40.9121 68.5215 40.8984 68.5527 40.8984C68.6035 40.8984 68.6504 40.9141 68.6934 40.9453C68.7402 40.9727 68.7793 41.0098 68.8105 41.0566C68.8457 41.0996 68.8711 41.1465 68.8867 41.1973C68.9062 41.248 68.916 41.2969 68.916 41.3438ZM71.4297 40.9277C71.4297 41.0449 71.3965 41.166 71.3301 41.291C71.2676 41.416 71.1855 41.5312 71.084 41.6367C70.9824 41.7383 70.8652 41.8223 70.7324 41.8887C70.6035 41.9551 70.4746 41.9883 70.3457 41.9883C70.1621 41.9883 70.0039 41.9531 69.8711 41.8828C69.7383 41.8086 69.623 41.7109 69.5254 41.5898C69.4277 41.4648 69.3477 41.3242 69.2852 41.168C69.2266 41.0117 69.1797 40.8516 69.1445 40.6875C69.1094 40.5195 69.084 40.3535 69.0684 40.1895C69.0566 40.0215 69.0508 39.8691 69.0508 39.7324C69.0508 39.6152 69.0566 39.4766 69.0684 39.3164C69.084 39.1562 69.1074 38.9902 69.1387 38.8184C69.1738 38.6465 69.2207 38.4766 69.2793 38.3086C69.3379 38.1406 69.4102 37.9902 69.4961 37.8574C69.5859 37.7246 69.6914 37.6172 69.8125 37.5352C69.9375 37.4531 70.0801 37.4121 70.2402 37.4121C70.3652 37.4121 70.4766 37.4375 70.5742 37.4883C70.6758 37.5391 70.7598 37.6074 70.8262 37.6934C70.8965 37.7754 70.9492 37.8711 70.9844 37.9805C71.0234 38.0898 71.043 38.2031 71.043 38.3203C71.043 38.4727 71.0078 38.6387 70.9375 38.8184C70.8672 38.998 70.7754 39.1719 70.6621 39.3398C70.5527 39.5078 70.4277 39.6602 70.2871 39.7969C70.1504 39.9297 70.0137 40.0312 69.877 40.1016C69.8848 40.1719 69.9004 40.2754 69.9238 40.4121C69.9473 40.5449 69.9785 40.6777 70.0176 40.8105C70.0605 40.9434 70.1094 41.0586 70.1641 41.1562C70.2227 41.2539 70.291 41.3027 70.3691 41.3027C70.4082 41.3027 70.4414 41.291 70.4688 41.2676C70.5 41.2441 70.5273 41.2129 70.5508 41.1738C70.5742 41.1348 70.5938 41.0918 70.6094 41.0449C70.6289 40.998 70.6465 40.9531 70.6621 40.9102L70.6973 40.8281C70.7051 40.8164 70.709 40.8086 70.709 40.8047C70.7129 40.8008 70.7168 40.7949 70.7207 40.7871C70.748 40.7363 70.7734 40.6895 70.7969 40.6465C70.8242 40.6035 70.8613 40.5664 70.9082 40.5352H70.9023C70.918 40.5195 70.9336 40.5117 70.9492 40.5117C70.9688 40.5078 70.9863 40.5059 71.002 40.5059C71.0449 40.5059 71.0918 40.5195 71.1426 40.5469C71.1934 40.5742 71.2402 40.6094 71.2832 40.6523C71.3262 40.6914 71.3613 40.7363 71.3887 40.7871C71.416 40.834 71.4297 40.8809 71.4297 40.9277ZM70.2695 38.3438C70.2695 38.3047 70.2676 38.2637 70.2637 38.2207C70.2598 38.1777 70.25 38.1406 70.2344 38.1094C70.1797 38.1758 70.1309 38.2559 70.0879 38.3496C70.0488 38.4395 70.0156 38.5352 69.9883 38.6367C69.9609 38.7344 69.9375 38.834 69.918 38.9355C69.9023 39.0371 69.8906 39.1309 69.8828 39.2168C69.9844 39.0957 70.0742 38.959 70.1523 38.8066C70.2305 38.6504 70.2695 38.4961 70.2695 38.3438ZM72.25 42.0938C72.1914 42.0938 72.127 42.0859 72.0566 42.0703C71.9902 42.0547 71.9258 42.0293 71.8633 41.9941C71.8047 41.959 71.7539 41.916 71.7109 41.8652C71.6719 41.8105 71.6523 41.7461 71.6523 41.6719C71.6523 41.5625 71.6562 41.4551 71.6641 41.3496C71.6758 41.2402 71.6875 41.1328 71.6992 41.0273V41.0332L71.7344 40.6406C71.7461 40.5 71.7559 40.3457 71.7637 40.1777C71.7715 40.0098 71.7773 39.8398 71.7812 39.668C71.7891 39.4922 71.7949 39.3203 71.7988 39.1523C71.8027 38.9844 71.8047 38.8301 71.8047 38.6895C71.8047 38.6074 71.8027 38.5254 71.7988 38.4434C71.7988 38.3574 71.7988 38.2715 71.7988 38.1855C71.7949 38.1113 71.793 38.0293 71.793 37.9395C71.793 37.8457 71.793 37.7598 71.793 37.6816C71.793 37.5996 71.8027 37.5332 71.8223 37.4824C71.8457 37.4277 71.9082 37.4004 72.0098 37.4004C72.0996 37.4004 72.1934 37.4238 72.291 37.4707C72.3926 37.5176 72.4629 37.584 72.502 37.6699H72.4961C72.5156 37.7129 72.5293 37.7832 72.5371 37.8809C72.5488 37.9746 72.5566 38.0586 72.5605 38.1328C72.627 38.0312 72.7012 37.9238 72.7832 37.8105C72.8691 37.6973 72.9609 37.5938 73.0586 37.5C73.1562 37.4023 73.2598 37.3223 73.3691 37.2598C73.4785 37.1973 73.5957 37.166 73.7207 37.166C73.8848 37.166 74.0098 37.207 74.0957 37.2891C74.1816 37.3711 74.2441 37.4746 74.2832 37.5996C74.3223 37.7207 74.3438 37.8516 74.3477 37.9922C74.3516 38.1289 74.3535 38.2539 74.3535 38.3672V38.4141C74.3535 38.4609 74.3516 38.5078 74.3477 38.5547C74.3477 38.5977 74.3398 38.6387 74.3242 38.6777C74.3125 38.7129 74.2891 38.7422 74.2539 38.7656C74.2227 38.7891 74.1777 38.8008 74.1191 38.8008C74.0566 38.8008 73.9902 38.793 73.9199 38.7773C73.8496 38.7578 73.7832 38.7305 73.7207 38.6953C73.6621 38.6602 73.6113 38.6172 73.5684 38.5664C73.5254 38.5117 73.502 38.4492 73.498 38.3789C73.498 38.3477 73.498 38.3164 73.498 38.2852C73.498 38.2539 73.5 38.2227 73.5039 38.1914C73.5039 38.1719 73.5039 38.1484 73.5039 38.1211C73.5078 38.0898 73.5098 38.0605 73.5098 38.0332C73.3848 38.1582 73.2734 38.3125 73.1758 38.4961C73.082 38.6797 72.9961 38.875 72.918 39.082C72.8438 39.2891 72.7793 39.498 72.7246 39.709C72.6699 39.916 72.623 40.1035 72.584 40.2715V40.2891C72.5723 40.4102 72.5645 40.5293 72.5605 40.6465C72.5566 40.7637 72.5527 40.8848 72.5488 41.0098C72.5449 41.1504 72.5391 41.293 72.5312 41.4375C72.5273 41.582 72.5176 41.7227 72.502 41.8594C72.4941 41.9336 72.4707 41.9902 72.4316 42.0293C72.3965 42.0723 72.3359 42.0938 72.25 42.0938Z" fill="#1D1D1B"/>
</svg>
