<?xml version="1.0" encoding="UTF-8"?>
<svg id="Objects" xmlns="http://www.w3.org/2000/svg" viewBox="0 0 800 400">
  <defs>
    <style>
      .cls-1 {
        fill: #cdcccc;
      }

      .cls-2 {
        fill: #fff;
      }

      .cls-3 {
        fill: #a46164;
      }

      .cls-4 {
        fill: #9b6165;
      }

      .cls-5 {
        fill: #1d1d1b;
        font-family: JustAnotherHand-Regular, 'Just Another Hand';
        font-size: 148px;
      }

      .cls-6 {
        fill: #be7778;
      }

      .cls-7 {
        letter-spacing: -.01172em;
      }

      .cls-8 {
        letter-spacing: -.02002em;
      }

      .cls-9 {
        fill: #854a51;
      }

      .cls-10 {
        letter-spacing: -.01611em;
      }
    </style>
  </defs>
  <g>
    <ellipse class="cls-1" cx="155.26954" cy="274.89291" rx="32.14535" ry="5.41223"/>
    <path class="cls-6" d="M212.62762,177.06992c0,11.72726-3.58386,23.51162-10.89093,33.60817l-46.46734,64.21526-46.46735-64.21526c-16.51524-22.82307-14.01124-54.26145,5.90981-74.1825,11.19993-11.19993,25.87957-16.80074,40.55754-16.80074s29.35762,5.60081,40.55754,16.80074c11.10756,11.10755,16.80074,25.7956,16.80074,40.57433Z"/>
    <path class="cls-3" d="M212.62764,177.07005c0,11.72742-3.5843,23.51128-10.89081,33.60804l-46.46729,64.21482V119.6953c14.67778,0,29.35741,5.59995,40.55731,16.79985,11.10736,11.10829,16.80079,25.79625,16.80079,40.5749Z"/>
    <circle class="cls-4" cx="155.26954" cy="177.05294" r="41.15818"/>
    <path class="cls-9" d="M196.42747,177.05339c0,22.7302-18.42681,41.15793-41.15793,41.15793v-82.31679c22.73112,0,41.15793,18.42774,41.15793,41.15886Z"/>
    <circle class="cls-2" cx="155.26954" cy="177.05294" r="33.67153"/>
  </g>
  <text class="cls-5" transform="translate(255.0249 243.97852)"><tspan class="cls-8" x="0" y="0">W</tspan><tspan x="72.55469" y="0">ach</tspan><tspan class="cls-7" x="180.30322" y="0">t</tspan><tspan class="cls-10" x="207.40283" y="0">W</tspan><tspan x="280.53564" y="0">ijzer</tspan></text>
</svg>
